<svg version="1.1" xmlns="http://www.w3.org/2000/svg" xmlns:xlink="http://www.w3.org/1999/xlink" width="63.75375" height="63.75375" viewBox="0,0,63.75375,63.75375"><defs><radialGradient cx="239.99999" cy="180.00001" r="31.87688" gradientUnits="userSpaceOnUse" id="color-1"><stop offset="0" stop-color="#000000"/><stop offset="1" stop-color="#000000" stop-opacity="0"/></radialGradient><linearGradient x1="239.9068" y1="181.94868" x2="239.9068" y2="201.24746" gradientUnits="userSpaceOnUse" id="color-2"><stop offset="0" stop-color="#9947a6"/><stop offset="1" stop-color="#626fc2"/></linearGradient><linearGradient x1="250.4783" y1="160.79622" x2="250.4783" y2="168.04113" gradientUnits="userSpaceOnUse" id="color-3"><stop offset="0" stop-color="#e4a367"/><stop offset="1" stop-color="#e89c87"/></linearGradient><linearGradient x1="225.35555" y1="180.07694" x2="243.44139" y2="180.07694" gradientUnits="userSpaceOnUse" id="color-4"><stop offset="0" stop-color="#5450c9"/><stop offset="1" stop-color="#c54ac7"/></linearGradient><linearGradient x1="225.54438" y1="171.03255" x2="254.93676" y2="171.03255" gradientUnits="userSpaceOnUse" id="color-5"><stop offset="0" stop-color="#a5a2d7"/><stop offset="1" stop-color="#fabcc4"/></linearGradient><linearGradient x1="225.83991" y1="180.07693" x2="243.44139" y2="180.07693" gradientUnits="userSpaceOnUse" id="color-6"><stop offset="0" stop-color="#a5a2d7"/><stop offset="1" stop-color="#d9b2cc"/></linearGradient></defs><g transform="translate(-208.12313,-148.12313)"><g data-paper-data="{&quot;isPaintingLayer&quot;:true}" fill-rule="nonzero" stroke="none" stroke-width="0" stroke-linecap="butt" stroke-linejoin="miter" stroke-miterlimit="10" stroke-dasharray="" stroke-dashoffset="0" style="mix-blend-mode: normal"><g><path d="M208.12313,180.00001c0,-17.6051 14.27178,-31.87688 31.87688,-31.87688c17.60512,0 31.87687,14.27178 31.87687,31.87688c0,17.6051 -14.27177,31.87687 -31.87687,31.87687c-17.6051,0 -31.87688,-14.27175 -31.87688,-31.87687z" fill="url(#color-1)"/><path d="M214.4985,180.00001c0,-14.08409 11.4174,-25.50151 25.50149,-25.50151c14.0841,0 25.50149,11.41742 25.50149,25.50151c0,14.0841 -11.41741,25.50149 -25.50149,25.50149c-14.08409,0 -25.50149,-11.4174 -25.50149,-25.50149z" fill="#ffffff"/><g><path d="M236.37947,181.94868l7.02172,3.60408c0,0 0.08472,6.11581 0.10558,8.26351c0.00878,0.90421 -0.12977,2.12549 -1.59794,3.18645c-0.30102,0.205 -1.67761,1.24778 -2.99078,2.24838c-0.4067,0.30989 -0.80732,0.61574 -1.16801,0.89141c-0.82663,0.63177 -1.44068,0.33521 -1.43718,-0.59c0.00134,-0.3562 0.00279,-0.73547 0.00417,-1.10271c0.01215,-3.20851 0.06243,-16.50109 0.06243,-16.50109z" fill="url(#color-2)"/><path d="M254.72184,166.73296c-0.22146,0.28541 -0.70756,0.8564 -1.26389,1.16129c-0.29637,0.16241 -0.67777,0.02143 -0.9523,0.06251c-1.59079,0.23804 -6.32326,-0.10326 -6.32326,-0.10326c0,0 3.09958,-4.86518 3.90206,-6.03756c0.32979,-0.48182 1.1593,-0.67309 1.50591,-0.15216c0.96058,1.44366 2.81175,4.22582 3.11215,4.67728c0.08148,0.12247 0.10093,0.28672 0.01932,0.39189z" fill="url(#color-3)"/><path d="M232.94355,173.23562l8.73692,4.49956c0,0 1.64791,0.7206 1.69698,2.56573c-0.02939,1.40675 0.06395,7.58067 0.06395,7.58067c0,0 -0.22697,-1.74285 -2.11328,-2.80395c-3.03719,-1.73486 -9.73041,-5.46816 -13.45117,-7.63899c-1.63329,-0.95293 -2.21856,-1.49274 -1.98926,-2.35982c0.05003,-0.18916 0.13882,-0.38388 0.26397,-0.58741c0.04183,-0.06804 0.20318,-0.06872 0.2382,-0.12558c0.60486,-0.98244 0.99453,-0.06142 1.15482,-0.32484c0.16253,-0.26712 0.87352,-0.26754 0.87352,-0.26754c0,0 -0.00643,-1.33491 0.5561,-1.43283c2.13571,-0.37178 3.96924,0.89504 3.96924,0.89504z" fill="url(#color-4)"/><path d="M227.24818,172.74392c0.88925,-1.41402 1.77775,-2.74166 1.7952,-2.76461c1.38272,-2.18898 2.01436,-2.33825 3.64931,-2.39452c2.06849,0.02116 15.80974,-0.02864 20.26294,-0.02419c0.61376,-0.01282 0.95118,-0.18571 1.18496,-0.3255c0.1604,-0.09591 0.37725,-0.32879 0.53261,-0.49558c0.09904,-0.10634 0.11509,-0.08236 -0.00132,0.0989c-0.7307,1.13776 -3.43798,5.34022 -4.146,6.2543c-0.52931,0.68336 -1.30676,1.69718 -3.20021,1.67534c-3.5027,-0.04042 -16.22655,-0.24175 -20.07765,-0.30092c-0.67512,-0.01037 -1.06382,-0.01636 -1.06382,-0.01636c0,0 0.43074,-0.69998 1.06397,-1.70687z" fill="url(#color-5)"/><path d="M225.8454,175.31396c0,0 0.01342,-0.10879 0.02521,-0.16382c0.01486,-0.0694 0.03504,-0.13951 0.06044,-0.21047c0.05202,-0.14532 0.1259,-0.29427 0.22059,-0.44828c0.04183,-0.06804 0.08011,-0.13025 0.11512,-0.18712c0.60486,-0.98244 0.23552,-0.36914 0.39581,-0.63254c0.16253,-0.26712 0.27862,-0.45216 0.27862,-0.45216c0,0 1.10331,-0.58598 1.76418,-0.80646c0.10209,-0.03406 0.19363,-0.0594 0.2689,-0.0725c0.85407,-0.14868 1.65983,-0.03529 2.31933,0.15431c-0.0395,0.50745 -3.18228,1.97499 -3.18228,1.97499c0,0 -0.91925,-0.1046 -1.5687,0.20518c-0.59338,0.31926 -0.69723,0.63888 -0.69723,0.63888z" fill="url(#color-6)"/></g></g></g></g></svg>