<svg version="1.1" xmlns="http://www.w3.org/2000/svg" xmlns:xlink="http://www.w3.org/1999/xlink" width="304.3003" height="304.30025" viewBox="0,0,304.3003,304.30025"><defs><radialGradient cx="239.99998" cy="180.00002" r="119.37689" gradientUnits="userSpaceOnUse" id="color-1"><stop offset="0" stop-color="#000000"/><stop offset="1" stop-color="#000000" stop-opacity="0"/></radialGradient><linearGradient x1="239.65096" y1="187.29767" x2="239.65096" y2="259.57039" gradientUnits="userSpaceOnUse" id="color-2"><stop offset="0" stop-color="#9947a6"/><stop offset="1" stop-color="#626fc2"/></linearGradient><linearGradient x1="279.24056" y1="108.08306" x2="279.24056" y2="135.2148" gradientUnits="userSpaceOnUse" id="color-3"><stop offset="0" stop-color="#e4a367"/><stop offset="1" stop-color="#e89c87"/></linearGradient><linearGradient x1="185.15746" y1="180.28814" x2="252.88778" y2="180.28814" gradientUnits="userSpaceOnUse" id="color-4"><stop offset="0" stop-color="#5450c9"/><stop offset="1" stop-color="#c54ac7"/></linearGradient><linearGradient x1="185.86462" y1="146.41745" x2="295.93721" y2="146.41745" gradientUnits="userSpaceOnUse" id="color-5"><stop offset="0" stop-color="#a5a2d7"/><stop offset="1" stop-color="#fabcc4"/></linearGradient><linearGradient x1="186.97137" y1="180.2881" x2="252.88778" y2="180.2881" gradientUnits="userSpaceOnUse" id="color-6"><stop offset="0" stop-color="#a5a2d7"/><stop offset="1" stop-color="#d9b2cc"/></linearGradient></defs><g transform="translate(-92.84988,-32.8499)"><g data-paper-data="{&quot;isPaintingLayer&quot;:true}" fill-rule="nonzero" stroke-linecap="butt" stroke-linejoin="miter" stroke-miterlimit="10" stroke-dasharray="" stroke-dashoffset="0" style="mix-blend-mode: normal"><path d="M94.84989,275.23519c0,-59.99896 0,-148.11906 0,-181.81815c0,-26.16557 22.73163,-58.56714 54.69562,-58.56714c60.91162,0 155.35022,0 189.899,0c25.1397,0 55.70568,31.10369 55.70568,56.54696c0,34.37139 0,127.20919 0,187.87876c0,32.57375 -30.56593,55.87453 -55.70568,55.87453c-33.79375,0 -124.88841,0 -185.85858,0c-34.07175,0 -58.73599,-25.26921 -58.73599,-59.91496z" fill="#83a08b" stroke="#83a08b" stroke-width="4"/><g stroke="none" stroke-width="0"><path d="M120.62313,180.00002c0,-65.93 53.4469,-119.37689 119.37689,-119.37689c65.93007,0 119.37685,53.4469 119.37685,119.37689c0,65.93 -53.44686,119.37685 -119.37685,119.37685c-65.93,0 -119.37689,-53.44678 -119.37689,-119.37685z" fill="url(#color-1)"/><path d="M144.49851,180.00002c0,-52.74401 42.75746,-95.50154 95.50147,-95.50154c52.74405,0 95.50147,42.75749 95.50147,95.50154c0,52.74405 -42.75746,95.50147 -95.50147,95.50147c-52.74401,0 -95.50147,-42.75746 -95.50147,-95.50147z" fill="#ffffff"/><g><path d="M226.44136,187.29767l26.29589,13.49704c0,0 0.31726,22.90331 0.39539,30.94632c0.03289,3.38622 -0.48596,7.95981 -5.98417,11.93306c-1.1273,0.76772 -6.28254,4.67284 -11.20027,8.42004c-1.52307,1.16053 -3.02335,2.30593 -4.37412,3.33826c-3.09568,2.36592 -5.39525,1.25535 -5.38215,-2.20952c0.00503,-1.33397 0.01045,-2.75427 0.01563,-4.12957c0.0455,-12.01568 0.2338,-61.79555 0.2338,-61.79555z" fill="url(#color-2)"/><path d="M295.13236,130.31577c-0.82934,1.06886 -2.64976,3.20715 -4.73321,4.34895c-1.10989,0.60822 -2.53822,0.08024 -3.56631,0.23411c-5.95741,0.89146 -23.68019,-0.38672 -23.68019,-0.38672c0,0 11.60773,-18.2198 14.61299,-22.61027c1.23506,-1.80437 4.34149,-2.52069 5.63954,-0.56984c3.59731,5.40642 10.52982,15.82541 11.65482,17.51612c0.30515,0.45863 0.37798,1.07374 0.07233,1.46762z" fill="url(#color-3)"/><path d="M213.57404,154.66784l32.7192,16.85056c0,0 6.1713,2.69859 6.35506,9.6085c-0.11007,5.26819 0.23948,28.38914 0.23948,28.38914c0,0 -0.84997,-6.52687 -7.91409,-10.5006c-11.37408,-6.49693 -36.43975,-20.47792 -50.37377,-28.60753c-6.11657,-3.56866 -8.30838,-5.59022 -7.44966,-8.83738c0.18736,-0.70841 0.51988,-1.4376 0.98854,-2.19983c0.15666,-0.25481 0.76091,-0.25735 0.89206,-0.47029c2.26516,-3.67918 3.72445,-0.23002 4.32472,-1.21652c0.60867,-1.00035 3.27127,-1.0019 3.27127,-1.0019c0,0 -0.02407,-4.99914 2.08257,-5.36588c7.99808,-1.39229 14.86454,3.35185 14.86454,3.35185z" fill="url(#color-4)"/><path d="M192.24523,152.82645c3.3302,-5.2954 6.65756,-10.26733 6.72289,-10.35329c5.17822,-8.19759 7.54365,-8.7566 13.66642,-8.96732c7.74637,0.07926 59.20646,-0.10727 75.88343,-0.09058c2.29851,-0.04799 3.56211,-0.69547 4.43759,-1.21898c0.60069,-0.35916 1.41277,-1.23128 1.99457,-1.85592c0.3709,-0.39823 0.431,-0.30844 -0.00496,0.37037c-2.73644,4.26083 -12.875,19.99877 -15.52651,23.42197c-1.98223,2.55915 -4.89373,6.35582 -11.98457,6.27403c-13.1174,-0.15136 -60.76741,-0.90535 -75.18952,-1.12692c-2.52826,-0.03883 -3.98396,-0.06128 -3.98396,-0.06128c0,0 1.61311,-2.62138 3.98449,-6.39212z" fill="url(#color-5)"/><path d="M186.99192,162.45108c0,0 0.05027,-0.40742 0.0944,-0.61348c0.05564,-0.25988 0.13123,-0.52245 0.22635,-0.7882c0.19482,-0.54421 0.4715,-1.10202 0.82609,-1.67878c0.15666,-0.25481 0.3,-0.48778 0.43112,-0.70076c2.26516,-3.67918 0.88199,-1.38241 1.48226,-2.36884c0.60867,-1.00035 1.04343,-1.69332 1.04343,-1.69332c0,0 4.13184,-2.19446 6.60673,-3.02013c0.38233,-0.12756 0.72514,-0.22245 1.00701,-0.2715c3.19844,-0.55678 6.21596,-0.13217 8.68575,0.57786c-0.14792,1.90036 -11.91742,7.39622 -11.91742,7.39622c0,0 -3.44254,-0.39171 -5.87466,0.76837c-2.22217,1.19562 -2.61108,2.39257 -2.61108,2.39257z" fill="url(#color-6)"/></g></g></g></g></svg>